HIERARCHY
ROOT RootJoint
{
    OFFSET   0.000000   0.000000   0.000000
    CHANNELS 6 Xposition Yposition Zposition Xrotation Yrotation Zrotation
    JOINT pelvis_lowerback
    {
        OFFSET   0.000000   0.093605   0.000000
        CHANNELS 3 Xrotation Yrotation Zrotation
        JOINT lowerback_torso
        {
            OFFSET   0.000000   0.100000   0.000000
            CHANNELS 3 Xrotation Yrotation Zrotation
            JOINT torso_head
            {
                OFFSET   0.000000   0.282350   0.000000
                CHANNELS 3 Xrotation Yrotation Zrotation
                End Site
                {
                    OFFSET   0.000000   0.192650   0.000000
                }
            }
            JOINT rTorso_Clavicle
            {
                OFFSET  -0.001000   0.157500   0.000000
                CHANNELS 3 Xrotation Yrotation Zrotation
                JOINT rShoulder
                {
                    OFFSET  -0.117647   0.000000   0.000000
                    CHANNELS 3 Xrotation Yrotation Zrotation
                    JOINT rElbow
                    {
                        OFFSET  -0.245000   0.000000   0.000000
                        CHANNELS 3 Xrotation Yrotation Zrotation
                        JOINT rWrist
                        {
                            OFFSET  -0.240000   0.000000   0.000000
                            CHANNELS 3 Xrotation Yrotation Zrotation
                            End Site
                            {
                                OFFSET  -0.116353  -0.002500   0.000000
                            }
                        }
                    }
                }
            }
            JOINT lTorso_Clavicle
            {
                OFFSET   0.001000   0.157500   0.000000
                CHANNELS 3 Xrotation Yrotation Zrotation
                JOINT lShoulder
                {
                    OFFSET   0.117647   0.000000   0.000000
                    CHANNELS 3 Xrotation Yrotation Zrotation
                    JOINT lElbow
                    {
                        OFFSET   0.245000   0.000000   0.000000
                        CHANNELS 3 Xrotation Yrotation Zrotation
                        JOINT lWrist
                        {
                            OFFSET   0.240000   0.000000   0.000000
                            CHANNELS 3 Xrotation Yrotation Zrotation
                            End Site
                            {
                                OFFSET   0.116353  -0.002500   0.000000
                            }
                        }
                    }
                }
            }
        }
    }
    JOINT rHip
    {
        OFFSET  -0.100000  -0.051395   0.000000
        CHANNELS 3 Xrotation Yrotation Zrotation
        JOINT rKnee
        {
            OFFSET   0.000000  -0.410000   0.000000
            CHANNELS 3 Xrotation Yrotation Zrotation
            JOINT rAnkle
            {
                OFFSET   0.000000  -0.390000   0.000000
                CHANNELS 3 Xrotation Yrotation Zrotation
                JOINT rToeJoint
                {
                    OFFSET   0.000000  -0.050000   0.130000
                    CHANNELS 3 Xrotation Yrotation Zrotation
                    End Site
                    {
                        OFFSET  -0.010000   0.002000   0.060000
                    }
                }
            }
        }
    }
    JOINT lHip
    {
        OFFSET   0.100000  -0.051395   0.000000
        CHANNELS 3 Xrotation Yrotation Zrotation
        JOINT lKnee
        {
            OFFSET   0.000000  -0.410000   0.000000
            CHANNELS 3 Xrotation Yrotation Zrotation
            JOINT lAnkle
            {
                OFFSET   0.000000  -0.390000   0.000000
                CHANNELS 3 Xrotation Yrotation Zrotation
                JOINT lToeJoint
                {
                    OFFSET   0.000000  -0.050000   0.130000
                    CHANNELS 3 Xrotation Yrotation Zrotation
                    End Site
                    {
                        OFFSET   0.010000   0.002000   0.060000
                    }
                }
            }
        }
    }
}
MOTION
Frames: 10
Frame Time:   0.008333
 -2.221413   0.950902   6.918745  -4.836435  86.924786   6.693685   7.931771   1.066443  -1.458753   0.579523   0.053929   1.725482   1.083710   1.189247   1.275855   0.952392  -1.811625   6.971362   1.372200   3.047132  56.072492   0.000062  14.885303  -0.000154  -2.542103   2.008291   3.170082   1.217432   1.264533  -6.937077   3.747794  -5.618978 -56.423938   0.000086 -17.309962   0.000174  -1.686348  -1.058767  -3.293532   9.000223  -3.698272  -1.002233  11.597777   0.000195   0.000298  12.646696  -3.737955   1.629865 -45.000329  -0.000001   0.000003   3.675253  -3.407902   1.525405   7.684614  -0.000053  -0.000081  11.487107   5.019851   4.616299 -35.092390   0.000955  -0.000678
 -2.220098   0.950826   6.919317  -3.857365  86.819450   5.691656   7.942719   1.086182  -1.493215   0.571355   0.050891   1.736003   1.033986   1.211572   1.244627   0.985359  -1.809768   6.963937   1.393373   3.040952  56.087994   0.000055  14.860502  -0.000133  -2.569913   2.001293   3.167152   1.190960   1.253709  -6.906456   3.680116  -5.577607 -56.431803   0.000073 -17.390083   0.000163  -1.714654  -1.061737  -3.255357   9.065205  -3.690941  -0.954819  11.525140   0.000190   0.000298  12.696554  -3.725185   1.618364 -45.000263  -0.000001   0.000002   3.699508  -3.311144   1.562701   7.773647  -0.000057  -0.000076  11.342155   5.090874   4.603121 -34.900385   0.000693  -0.000471
 -2.218764   0.950734   6.919893  -2.892268  86.728343   4.701294   7.952220   1.102629  -1.526746   0.561770   0.045555   1.748009   0.985485   1.233265   1.215599   1.020102  -1.810808   6.956826   1.416699   3.032921  56.101398   0.000051  14.835893  -0.000114  -2.595372   1.990206   3.163903   1.162183   1.242016  -6.874896   3.613305  -5.540622 -56.437219   0.000061 -17.467289   0.000152  -1.743867  -1.078602  -3.214107   9.127559  -3.683333  -0.904119  11.456201   0.000181   0.000288  12.742950  -3.710265   1.608425 -45.000210  -0.000001   0.000002   3.721523  -3.216212   1.602302   7.858076  -0.000057  -0.000062  11.202987   5.162602   4.592297 -34.757470   0.000496  -0.000309
 -2.217410   0.950629   6.920467  -1.931516  86.649282   3.716062   7.960195   1.115395  -1.560137   0.551878   0.037710   1.758906   0.939930   1.253644   1.188350   1.054529  -1.813406   6.950263   1.440261   3.024216  56.113752   0.000047  14.812049  -0.000098  -2.619432   1.974770   3.160149   1.132976   1.229509  -6.843588   3.548986  -5.507130 -56.440564   0.000053 -17.540268   0.000141  -1.772325  -1.101601  -3.170727   9.186889  -3.675362  -0.853600  11.391817   0.000170   0.000269  12.785047  -3.694880   1.599671 -45.000168  -0.000001   0.000001   3.742164  -3.126036   1.641648   7.936487  -0.000055  -0.000046  11.070990   5.231602   4.582860 -34.649917   0.000352  -0.000192
 -2.216036   0.950514   6.921037  -0.965176  86.579932   2.726896   7.966970   1.125317  -1.593331   0.541995   0.028212   1.768102   0.897292   1.272699   1.162678   1.087806  -1.816857   6.944151   1.463274   3.015383  56.125173   0.000044  14.789302  -0.000084  -2.642329   1.956999   3.156011   1.104221   1.216677  -6.813416   3.487704  -5.476571 -56.442711   0.000047 -17.608914   0.000132  -1.799770  -1.127242  -3.126858   9.243026  -3.667235  -0.804424  11.331842   0.000158   0.000246  12.823465  -3.679556   1.591861 -45.000135  -0.000000   0.000001   3.761592  -3.041134   1.679919   8.009107  -0.000053  -0.000030  10.946121   5.297024   4.574448 -34.569760   0.000248  -0.000111
 -2.214642   0.950393   6.921601   0.013823  86.518564   1.727057   7.972803   1.133184  -1.626211   0.532292   0.017838   1.775502   0.857418   1.290498   1.138503   1.119521  -1.820722   6.938378   1.485341   3.006715  56.135709   0.000041  14.767792  -0.000072  -2.664192   1.938282   3.151552   1.076443   1.203889  -6.784890   3.429706  -5.448533 -56.444264   0.000044 -17.673312   0.000123  -1.826147  -1.153902  -3.083732   9.295976  -3.659142  -0.757097  11.275938   0.000145   0.000222  12.858891  -3.664589   1.584806 -45.000108  -0.000000   0.000001   3.779836  -2.961498   1.716729   8.076402  -0.000050  -0.000015  10.828154   5.358691   4.566876 -34.512080   0.000175  -0.000059
 -2.213226   0.950266   6.922158   1.010460  86.463987   0.711719   7.977892   1.139590  -1.658672   0.522889   0.007151   1.781166   0.820148   1.307117   1.115761   1.149477  -1.824725   6.932873   1.506256   2.998379  56.145417   0.000039  14.747568  -0.000061  -2.685109   1.919453   3.146823   1.049958   1.191403  -6.758254   3.375092  -5.422692 -56.445585   0.000043 -17.733610   0.000115  -1.851454  -1.180656  -3.042110   9.345833  -3.651218  -0.711868  11.223782   0.000132   0.000197  12.891880  -3.650163   1.578362 -45.000086  -0.000000   0.000001   3.796911  -2.886966   1.751862   8.138823  -0.000046  -0.000003  10.716790   5.416627   4.560020 -34.473431   0.000125  -0.000027
 -2.211798   0.950090   6.922703   1.960200  86.408052  -0.260697   7.988961   1.147609  -1.687709   0.518138  -0.002937   1.789300   0.735324   1.318829   1.104354   1.168238  -1.830452   6.951273   1.535648   2.985980  56.121822   0.000034  14.738547  -0.000050  -2.705998   1.909167   3.138485   1.007098   1.189264  -6.752896   3.326698  -5.385450 -56.448549   0.000046 -17.780568   0.000096  -1.866727  -1.222837  -2.976593   9.392413  -3.646739  -0.665994  11.185940   0.000117   0.000173  12.901757  -3.617747   1.553164 -45.000069  -0.000000   0.000001   3.789283  -2.813762   1.784193   8.259087  -0.000044   0.000014  10.569704   5.498237   4.565730 -34.464956   0.000095  -0.000017
 -2.210332   0.949881   6.923250   2.869915  86.350760  -1.193906   7.998688   1.155890  -1.716054   0.513906  -0.011720   1.796535   0.653430   1.329606   1.095048   1.186917  -1.836628   6.971280   1.564174   2.973457  56.099113   0.000030  14.729429  -0.000041  -2.725921   1.898830   3.125120   0.969724   1.188849  -6.755266   3.283658  -5.349550 -56.455367   0.000053 -17.823039   0.000082  -1.881460  -1.258522  -2.913824   9.441713  -3.641404  -0.619759  11.152086   0.000103   0.000153  12.900115  -3.584910   1.531618 -45.000055  -0.000000   0.000000   3.782811  -2.742113   1.817903   8.383946  -0.000044   0.000025  10.427888   5.579055   4.572327 -34.537522   0.000117  -0.000056
 -2.208832   0.949651   6.923801   3.781595  86.293328  -2.128260   8.005923   1.163857  -1.744576   0.509460  -0.019620   1.801532   0.576489   1.339644   1.086590   1.205164  -1.843047   6.992051   1.591480   2.961364  56.078910   0.000027  14.720559  -0.000034  -2.744956   1.887287   3.112210   0.936793   1.189536  -6.762210   3.245019  -5.315479 -56.464825   0.000061 -17.861935   0.000072  -1.895375  -1.288532  -2.858692   9.490911  -3.636020  -0.574217  11.120803   0.000092   0.000135  12.891571  -3.553194   1.512719 -45.000044  -0.000000   0.000000   3.778606  -2.674551   1.852390   8.504372  -0.000045   0.000031  10.292128   5.655561   4.578830 -34.654479   0.000158  -0.000105
